<svg width="400" height="400" viewBox="0 0 400 400" fill="none" xmlns="http://www.w3.org/2000/svg">
<path d="M134 39H266C269.314 39 272 41.6863 272 45V380H128V45C128 41.6863 130.686 39 134 39Z" stroke="#667085" stroke-width="4"/>
<path d="M41 152H128V380H41C37.6863 380 35 377.314 35 374V158C35 154.686 37.6863 152 41 152Z" stroke="#667085" stroke-width="4"/>
<path d="M81 211C87.0751 211 92 206.075 92 200C92 193.925 87.0751 189 81 189C74.9249 189 70 193.925 70 200C70 206.075 74.9249 211 81 211Z" fill="#667085" stroke="#667085" stroke-width="2"/>
<path d="M272 152H359C362.314 152 365 154.686 365 158V374C365 377.314 362.314 380 359 380H272V152Z" stroke="#667085" stroke-width="4"/>
<path d="M71 199.5C71 193.425 76.5 189 82 189H128C128 192 128 193.925 128 200C128 206.075 128 206 128 210.5L82 211C75.5 211 71 205.575 71 199.5Z" stroke="#667085" stroke-width="4"/>
<path d="M81 255C87.0751 255 92 250.075 92 244C92 237.925 87.0751 233 81 233C74.9249 233 70 237.925 70 244C70 250.075 74.9249 255 81 255Z" fill="#667085" stroke="#667085" stroke-width="2"/>
<path d="M71 243.5C71 237.425 76.5 233 82 233H128C128 236 128 237.925 128 244C128 250.075 128 250 128 254.5L82 255C75.5 255 71 249.575 71 243.5Z" stroke="#667085" stroke-width="4"/>
<path d="M81 299C87.0751 299 92 294.075 92 288C92 281.925 87.0751 277 81 277C74.9249 277 70 281.925 70 288C70 294.075 74.9249 299 81 299Z" fill="#667085" stroke="#667085" stroke-width="2"/>
<path d="M71 287.5C71 281.425 76.5 277 82 277H128C128 280 128 281.925 128 288C128 294.075 128 294 128 298.5L82 299C75.5 299 71 293.575 71 287.5Z" stroke="#667085" stroke-width="4"/>
<path d="M319 211C312.925 211 308 206.075 308 200C308 193.925 312.925 189 319 189C325.075 189 330 193.925 330 200C330 206.075 325.075 211 319 211Z" fill="#667085" stroke="#667085" stroke-width="2"/>
<path d="M329 199.5C329 193.425 323.5 189 318 189H272C272 192 272 193.925 272 200C272 206.075 272 206 272 210.5L318 211C324.5 211 329 205.575 329 199.5Z" stroke="#667085" stroke-width="4"/>
<path d="M319 255C312.925 255 308 250.075 308 244C308 237.925 312.925 233 319 233C325.075 233 330 237.925 330 244C330 250.075 325.075 255 319 255Z" fill="#667085" stroke="#667085" stroke-width="2"/>
<path d="M329 243.5C329 237.425 323.5 233 318 233H272C272 236 272 237.925 272 244C272 250.075 272 250 272 254.5L318 255C324.5 255 329 249.575 329 243.5Z" stroke="#667085" stroke-width="4"/>
<path d="M319 299C312.925 299 308 294.075 308 288C308 281.925 312.925 277 319 277C325.075 277 330 281.925 330 288C330 294.075 325.075 299 319 299Z" fill="#667085" stroke="#667085" stroke-width="2"/>
<path d="M329 287.5C329 281.425 323.5 277 318 277H272C272 280 272 281.925 272 288C272 294.075 272 294 272 298.5L318 299C324.5 299 329 293.575 329 287.5Z" stroke="#667085" stroke-width="4"/>
<path d="M200.5 164C193.596 164 188 158.404 188 151.5V76.5C188 69.5964 193.596 64 200.5 64C207.404 64 213 69.5964 213 76.5V151.5C213 158.404 207.404 164 200.5 164Z" fill="#667085" stroke="#667085" stroke-width="2"/>
<path d="M250 113.5C250 120.404 244.404 126 237.5 126H162.5C155.596 126 150 120.404 150 113.5C150 106.596 155.596 101 162.5 101H237.5C244.404 101 250 106.596 250 113.5Z" fill="#667085" stroke="#667085" stroke-width="2"/>
<path d="M180 340C180 335.582 183.582 332 188 332H213C217.418 332 221 335.582 221 340V382H180V340Z" fill="#667085"/>
<rect x="152" y="191" width="96" height="18" stroke="#667085" stroke-width="4"/>
<rect x="152" y="235" width="96" height="18" stroke="#667085" stroke-width="4"/>
<rect x="152" y="279" width="96" height="18" stroke="#667085" stroke-width="4"/>
</svg>
